<svg width="20" height="20" viewBox="0 0 20 20" fill="none" xmlns="http://www.w3.org/2000/svg">
<path d="M15.5 15.2727V12.7273H14.5V15.6364L16.65 17.5909L17.35 16.9545L15.5 15.2727ZM9 1.81818L3.075 4.93182L9 8.04545L14.925 4.93182L9 1.81818ZM0 12.7045V5.47727C0 5.14394 0.0876666 4.84091 0.263 4.56818C0.438333 4.29545 0.684 4.07576 1 3.90909L8 0.25C8.16666 0.174242 8.32933 0.113636 8.488 0.0681819C8.64666 0.0227273 8.81733 0 9 0C9.18266 0 9.35766 0.0227273 9.525 0.0681819C9.69233 0.113636 9.85066 0.174242 10 0.25L17 3.90909C17.3167 4.07576 17.5627 4.29545 17.738 4.56818C17.9133 4.84091 18.0007 5.14394 18 5.47727V9.09091H16V6.45455L8.975 10.1364L2 6.45455V12.6818L8 15.8409V17.9318L1 14.2727C0.683333 14.1061 0.437667 13.8864 0.263 13.6136C0.0883333 13.3409 0.000666666 13.0379 0 12.7045ZM15 20C13.6167 20 12.4377 19.5567 11.463 18.67C10.4883 17.7833 10.0007 16.7115 10 15.4545C9.99933 14.1976 10.487 13.1258 11.463 12.2391C12.439 11.3524 13.618 10.9091 15 10.9091C16.382 10.9091 17.5613 11.3524 18.538 12.2391C19.5147 13.1258 20.002 14.1976 20 15.4545C19.998 16.7115 19.5103 17.7836 18.537 18.6709C17.5637 19.5582 16.3847 20.0012 15 20Z" fill="black"/>
</svg>
